<?xml version="1.0" standalone="no"?>
<!DOCTYPE svg PUBLIC "-//W3C//DTD SVG 1.1//EN" "http://www.w3.org/Graphics/SVG/1.1/DTD/svg11.dtd" >
<svg xmlns="http://www.w3.org/2000/svg">
<metadata>
Created by FontForge 20120731 at Thu Apr 23 18:42:22 2015
 By Ads
</metadata>
<defs>
<font id="iconfont" horiz-adv-x="1024" >
  <font-face 
    font-family="iconfont"
    font-weight="500"
    font-stretch="normal"
    units-per-em="1024"
    panose-1="2 0 6 3 0 0 0 0 0 0"
    ascent="812"
    descent="-212"
    x-height="792"
    bbox="-0.228571 -216 1057 812"
    underline-thickness="50"
    underline-position="-100"
    unicode-range="U+0078-F014F"
  />
<missing-glyph horiz-adv-x="374" 
d="M34 0v682h272v-682h-272zM68 34h204v614h-204v-614z" />
    <glyph glyph-name=".notdef" horiz-adv-x="374" 
d="M34 0v682h272v-682h-272zM68 34h204v614h-204v-614z" />
    <glyph glyph-name=".null" horiz-adv-x="0" 
 />
    <glyph glyph-name="nonmarkingreturn" horiz-adv-x="341" 
 />
    <glyph glyph-name="x" unicode="x" horiz-adv-x="1001" 
d="M281 543q-27 -1 -53 -1h-83q-18 0 -36.5 -6t-32.5 -18.5t-23 -32t-9 -45.5v-76h912v41q0 16 -0.5 30t-0.5 18q0 13 -5 29t-17 29.5t-31.5 22.5t-49.5 9h-133v-97h-438v97zM955 310v-52q0 -23 0.5 -52t0.5 -58t-10.5 -47.5t-26 -30t-33 -16t-31.5 -4.5q-14 -1 -29.5 -0.5
t-29.5 0.5h-32l-45 128h-439l-44 -128h-29h-34q-20 0 -45 1q-25 0 -41 9.5t-25.5 23t-13.5 29.5t-4 30v167h911zM163 247q-12 0 -21 -8.5t-9 -21.5t9 -21.5t21 -8.5q13 0 22 8.5t9 21.5t-9 21.5t-22 8.5zM316 123q-8 -26 -14 -48q-5 -19 -10.5 -37t-7.5 -25t-3 -15t1 -14.5
t9.5 -10.5t21.5 -4h37h67h81h80h64h36q23 0 34 12t2 38q-5 13 -9.5 30.5t-9.5 34.5q-5 19 -11 39h-368zM336 498v228q0 11 2.5 23t10 21.5t20.5 15.5t34 6h188q31 0 51.5 -14.5t20.5 -52.5v-227h-327z" />
    <glyph glyph-name="uni3464" unicode="&#x3464;" 
d="M881 292l-483 520h-223l483 -520l-483 -484h223z" />
    <glyph glyph-name="uniE602" unicode="&#xe602;" 
d="M498 122l-8 -6q-4 -3 -8 -4.5t-8.5 -2.5t-9.5 -1q-20 1 -34 14l-160 160q-14 14 -14 36q1 19 14 32t32 14q5 0 9.5 -1t9.5 -2.5t9 -4t8 -6.5l126 -126l222 222q5 5 11 8t12 4.5t13 1.5q19 -1 32 -14t14 -32q1 -21 -14 -36zM512 716q-172 0 -294 -122t-122 -294t122 -294
t294 -122t294 122t122 294t-122 294t-294 122zM512 -212q-139 0 -257 68.5t-186.5 186.5t-68.5 257t68.5 257t186.5 186.5t257 68.5t257 -68.5t186.5 -186.5t68.5 -257t-68.5 -257t-186.5 -186.5t-257 -68.5z" />
    <glyph glyph-name="uniE604" unicode="&#xe604;" 
d="M512 567q-53 0 -105.5 -14.5t-94 -38t-79.5 -52t-65.5 -57t-48 -52t-30.5 -38.5l-10 -15q3 -5 7.5 -15t23.5 -38t41 -53t59 -56t79 -53.5t100.5 -38t122.5 -15.5q221 0 365 168q47 54 68 101q-3 4 -7 9.5t-19 24t-31 36t-41.5 41.5t-51.5 45t-60 42t-68 35.5t-74.5 24
t-80.5 9.5zM512 122q-74 0 -126 52t-52 125q0 49 24 89.5t65 64.5t89 24t89 -24t64.5 -64.5t23.5 -89.5q0 -20 -4.5 -40t-13 -37.5t-21 -33t-28 -27.5t-33 -21t-37 -13.5t-40.5 -4.5zM516 396q-40 0 -68 -28.5t-28 -68.5q0 -26 13 -48t35 -35t48.5 -13t48.5 13t35 35
t13 48.5t-13 48.5t-35 35t-49 13z" />
    <glyph glyph-name="uniE605" unicode="&#xe605;" 
d="M171 812h525h113q55 0 67 -3q17 -4 31.5 -9.5t26.5 -12.5t24 -16q23 -18 39 -45t24 -62q3 -12 3 -57v-89v-418v-103q0 -51 -4 -67q-17 -67 -65 -104q-34 -25 -79 -35q-10 -2 -20.5 -2.5t-32.5 -0.5h-23h-137h-355h-90q-66 0 -90 8q-84 26 -117 111q-10 27 -10 105v101
v404v89q0 42 1 49q7 41 21 65q34 57 97 82q2 0 3.5 0.5t3.5 1t3.5 1t4 1t3.5 1t3.5 1t4 1t4 1t3.5 0.5q4 0 9.5 0.5t8.5 1.5zM272 490q-61 0 -106 7v-50q5 1 11 1.5t12.5 1.5t11.5 1q3 0 6 0.5t7 0.5h5q9 1 53 2v-153l-13 -7q-7 -3 -14 -7t-13 -7q-8 -4 -18 -8.5t-18 -8
t-19 -8.5t-18 -8v-1q2 -3 5.5 -8.5t4.5 -7.5q4 -7 14 -31v1q5 3 14.5 9.5t14.5 9.5q36 23 60 39v-153v-7v-8v-8v-8q0 -3 -0.5 -6.5t-1.5 -6.5l-2 -6q-1 -3 -2.5 -5t-3.5 -4q-5 -3 -12 -5.5t-13 -3t-15.5 -1t-15.5 -1.5q-4 0 -8 -0.5t-8 -0.5h-8h-8l1 -1l1 -1l1 -1l1 -1
q2 -2 4.5 -5.5t4.5 -5.5q6 -9 6 -34q90 -1 112 31q3 4 5 8.5t3.5 11t2 11.5t1 13.5t0.5 13.5v15v14v182q14 9 43 27t43 27q-11 21 -14 43l-1 -2l-12 -9q-8 -6 -13 -10q-26 -20 -46 -32v125q14 0 33.5 -0.5t32.5 -2.5q5 0 15.5 -1.5t16.5 -2.5v50h-1q-3 -1 -7.5 -1.5t-9.5 -1
t-8 -1.5q-4 0 -8.5 -0.5t-8.5 -1t-9.5 -1t-8.5 -0.5h-10h-8h-10h-9v74v37q2 5 4.5 8.5t7.5 8.5l6 6q3 2 4 4t-1 6q-6 2 -21.5 2t-22.5 1q-3 0 -8 0.5t-8 1t-7.5 1t-7.5 1.5q0 -3 1 -9.5t1.5 -10.5t1.5 -9.5t1 -10.5q1 -5 1.5 -15t0.5 -15q0 -4 0.5 -11.5t0.5 -11.5v-7
q0 -4 0.5 -8.5t0.5 -7.5v-17v-18zM760 358q-1 5 -2 15t-1 15t-0.5 13.5t-0.5 12.5v53v60v10v12v10q3 17 4 37q-166 -10 -313 0q3 -27 3 -104v-7v-26v-25q0 -15 -0.5 -25.5t-1 -23.5t-1.5 -24h8q15 0 45.5 0.5t45.5 0.5h46q30 0 45 -1h7h6h6h7h7h6h6h7q21 -1 71 -3zM494 558
h219v-67h-219v67zM494 457h219v-61h-219v61zM398 322v-47q66 6 184 6v-214q-32 15 -56.5 41t-41.5 61q1 7 7.5 20t10.5 19q1 1 4.5 3t5 4t0.5 6q-1 2 -4.5 3t-9.5 1h-7q-10 2 -18.5 5t-18.5 8q0 -7 -1 -15t-2 -14.5t-3 -14.5q-14 -66 -35 -101q-8 -13 -29 -38
q-6 -7 -13.5 -14t-17.5 -15t-15 -13q6 -1 13 -4.5t10.5 -6t11 -8.5t8.5 -7q7 5 18 19q25 32 28 35q0 1 22 38q16 28 20 45v-1q2 -2 4 -5.5t3 -4.5q4 -6 9.5 -12.5t11.5 -13.5t9 -11q13 -16 35.5 -32.5t42.5 -24.5q10 -4 67 -13q3 0 7 -0.5t7 -1t7 -0.5h7q5 -1 12 -1.5
t13 -0.5h13q7 0 13 -1q5 0 14 -0.5t13 -0.5q9 0 21.5 -0.5t24.5 -0.5h21q-2 20 -0.5 29t9.5 24q-5 -1 -10.5 -1.5t-10 -1t-10 -1t-10.5 -0.5h-12l-14 -2q-7 0 -13 -1q-5 0 -17 -0.5t-17 -0.5h-27h-8q-6 0 -9 1q-2 0 -22 2t-29 5v116h17h19h17h19h16q11 0 18.5 -0.5t17 -1
t17.5 -1t16 -1.5v44q-9 -3 -26 -3.5t-24 -1.5q-6 0 -18 -0.5t-18 -0.5q-12 0 -36 -0.5t-35 -0.5v80h34h34q6 -1 18 -1h18q4 -1 12 -1h12q3 0 7 -0.5t7.5 -0.5t7 -0.5t7 -0.5t7.5 -0.5t7.5 -0.5t7 -0.5t7.5 -0.5v47q-11 -1 -33.5 -2t-33.5 -2q-7 0 -22 -0.5t-22 -0.5
q-16 0 -47 -0.5t-46 -0.5h-16h-16h-16h-15q-7 0 -19 0.5t-18 0.5h-9h-9q-4 0 -8.5 0.5t-9.5 0.5h-8q-11 1 -32 2t-32 2z" />
    <glyph glyph-name="uniE60A" unicode="&#xe60a;" 
d="M801 405q-1 -6 -1.5 -12.5t-1.5 -12.5q-16 -112 -95 -184.5t-185 -72.5h-46l-8 -9q24 -44 65.5 -70.5t90.5 -26.5h46l90 -94q3 -3 6.5 -5t7.5 -3t8 -1q6 0 11 2q19 8 19 28v77q31 7 58 24.5t46.5 42.5t30.5 57.5t11 67.5q0 36 -11.5 69t-32 58.5t-49 42.5t-60.5 22z
M755 386q3 22 3 40q0 107 -70.5 183t-169.5 76h-207q-100 0 -170.5 -76t-70.5 -183q0 -96 56.5 -167.5t142.5 -87.5v-110q0 -24 22 -32q3 -2 6.5 -2.5t6.5 -0.5q7 0 13.5 3t11.5 8l125 130h64q35 0 68.5 10.5t61.5 30t50 46.5t37 60.5t20 71.5zM244 506h337q7 0 12.5 -5
t5.5 -12.5t-5.5 -13t-12.5 -5.5h-337q-7 0 -12 5.5t-5 13t5 12.5t12 5zM446 338h-202q-7 0 -12 5.5t-5 13t5 12.5t12 5h202q3 0 5 -0.5t4 -1.5t3.5 -3t2.5 -4l2 -4q1 -2 1 -5q-3 -15 -18 -18z" />
    <glyph glyph-name="uniE60B" unicode="&#xe60b;" 
d="M968 136h-28l1 1v2v61q0 58 -41.5 99t-99.5 41q-16 0 -31.5 -3.5t-29.5 -10.5t-26 -16.5t-22 -21.5t-17 -26t-10.5 -30t-3.5 -32v-61v-1v-2h-16q-19 0 -33 -14t-14 -33v-223q0 -19 14 -33t33 -14h325q19 0 32.5 14t13.5 33v223q0 19 -13.5 33t-33.5 14zM732 139v61
q0 28 20 48.5t48.5 20.5t48.5 -20.5t20 -48.5v-61v-1v-2h-138l1 1v2v0zM979 -134q0 -5 -3 -8t-8 -3h-324q-5 0 -8 3t-3 8v223q0 3 1.5 5.5t4 4t5.5 1.5h324q5 0 8 -3t3 -8v-223zM806 -11q-7 0 -13 -3.5t-10 -9.5t-4 -13v-52h54v52q0 11 -8 18.5t-19 7.5zM656 195
q-26 9 -52 15q-4 2 -8 2h-9q-5 0 -9 -2q-7 -3 -20 -9q-2 0 -4 -1t-4.5 -2t-4 -1t-4.5 -1q-2 -1 -4.5 -1.5t-3.5 -1.5q-6 -1 -15 -3q-6 -1 -15 -2q-9 -2 -12 -2l-28 -2q-1 0 -3 0.5t-4 0.5h-3q-30 1 -57 7.5t-48 17.5q-4 2 -8 2h-7h-4q-159 -38 -280 -155q-5 -5 -5 -13v-62
q0 -3 0.5 -15.5t2 -31t3 -38.5t3.5 -37t4 -28.5t5 -11.5h522q-15 32 -23.5 67.5t-8.5 72.5q0 68 27.5 129t76.5 106v0zM265 491q0 -14 9.5 -24t22.5 -10h1q3 -45 25.5 -86.5t60 -68t79.5 -26.5q7 0 15 1l5 1q4 0 9 1q1 1 4 1l2 1q2 1 6 2h1l2 1l6 2l4 2q64 29 95 104
q14 32 16 65h1q13 0 22.5 10t9.5 24q0 22 -19 32q10 31 10 64q0 68 -38.5 121.5t-99.5 71.5h-2l-1 1q-9 2 -19 4q-5 1 -6 1q-6 1 -11.5 1.5t-11.5 0.5q-51 0 -94.5 -27t-69 -73t-25.5 -101q0 -11 1.5 -22t3.5 -21.5t5 -20.5q-5 -3 -9.5 -7.5t-7 -11t-2.5 -13.5zM265 491z
" />
    <glyph glyph-name="uniE60F" unicode="&#xe60f;" 
d="M321 15q-3 43 -35 68q-13 10 -27.5 14.5t-30.5 3.5q-30 -1 -55.5 -24t-27.5 -62q-20 -2 -38 5q-22 7 -36 22.5t-21 39.5q-1 5 -1.5 10.5t-0.5 11.5v455q0 34 21.5 57t51.5 28q6 0 11.5 0.5t10.5 0.5h448h7v-6v-546q0 -22 -18 -44q-9 -11 -19.5 -18.5t-23 -11.5t-26.5 -4
h-184h-6zM880 15q-2 38 -26 61t-55 25q-37 3 -65.5 -22.5t-29.5 -63.5q-7 0 -14 1t-14 3q-46 16 -57 62q-2 5 -2.5 10.5t-0.5 10.5v338q0 22 9.5 40.5t26.5 30.5t39 14q25 4 56 -3q42 -9 77 -39q49 -40 85 -102q26 -45 40 -102q13 -53 14 -59q4 -23 6 -52q0 -7 0.5 -16
t0.5 -16v-18v-16q1 -28 -18 -52q-12 -17 -29 -25.5t-39 -9.5h-3h-1zM689 320v-20v-88q0 -3 1 -7q2 -7 6.5 -13.5t10.5 -11.5q17 -14 35 -14h32h32h34h32q4 0 7 1q20 4 35 21q10 12 9 26v35q1 12 -0.5 24t-4.5 24q-10 42 -22 67q-10 21 -24 40t-32 35q-11 10 -27 19
q-23 13 -47 15q-8 1 -16.5 1t-15.5 -1q-20 -3 -35 -20q-10 -13 -10 -26v-107zM231 69q23 0 39 -16t16 -38.5t-16.5 -38.5t-38.5 -16t-38 16t-16 38q0 8 2 15t5.5 13t8.5 11t11 8.5t13 5.5t14 2zM792 69q22 0 38 -16t16 -38q0 -15 -7.5 -27.5t-20 -20t-26.5 -7.5
q-22 0 -38.5 16t-16.5 38.5t16 38.5t39 16z" />
    <glyph glyph-name="uniE615" unicode="&#xe615;" 
d="M820 377h-28v243q0 35 -29.5 60.5t-71.5 25.5h-348q-42 0 -71.5 -25.5t-29.5 -60.5v-243h-28q-21 0 -35.5 -12.5t-14.5 -30.5v-393q0 -17 14.5 -30t35.5 -13h606q8 0 16 2.5t14 6.5t10.5 9t7 11.5t2.5 13.5v393q0 18 -14.5 30.5t-35.5 12.5zM565 1q0 -4 -2 -7t-6 -5
t-9 -2h-62q-3 0 -6.5 1t-5.5 3t-3.5 4.5t-1.5 5.5l16 186q-33 19 -33 57q0 17 9 32t24 23.5t32 8.5q27 0 46 -18.5t19 -45.5q0 -5 -0.5 -9.5t-1.5 -8.5l-4 -8q-1 -4 -3 -7.5t-5 -7t-6 -6t-6 -5.5t-7 -5zM704 377h-374v216q0 18 15 30.5t36 12.5h273q21 0 35.5 -12.5
t14.5 -30.5v-216z" />
    <glyph glyph-name="uniE61A" unicode="&#xe61a;" 
d="M827 684h-633q-5 0 -10.5 -1t-10 -2.5t-9.5 -4t-9 -5t-7.5 -6t-6.5 -7.5t-5.5 -8.5t-4 -9t-2.5 -10t-1 -10.5v-514q0 -25 17 -44t43 -22h259v-60h-62q-13 0 -22 -9.5t-9 -22.5q0 -3 0.5 -5.5t1.5 -4.5l2 -6q1 -2 3 -4l4 -4q2 -2 4.5 -3.5t5 -2.5t5.5 -1.5t5 -0.5h256
q13 0 22.5 9.5t9.5 22.5t-9.5 22.5t-22.5 9.5h-66v60h264q16 2 29.5 11t20.5 24t7 31v514q0 13 -5.5 25t-15 20.5t-22.5 13.5t-26 5zM832 153q0 -18 -11 -30.5t-27 -14.5h-562q-17 2 -28.5 15t-11.5 30v423q0 12 6 22t16.5 15.5t22.5 5.5h548q19 0 33 -12.5t14 -30.5v-423z
M695 520q-6 0 -12.5 -2t-11.5 -5t-10 -8l-221 -220l-76 75q-14 14 -34 14.5t-34.5 -14t-14.5 -33.5t14 -33l108 -110q14 -14 37 -13.5t37 14.5l251 251q14 14 15 35t-13 35t-35 14z" />
    <glyph glyph-name="uniE61D" unicode="&#xe61d;" 
d="M808 174q49 0 90 -24t65 -65t24 -90q0 -74 -52 -126.5t-127 -52.5q-29 0 -56 9t-49 25.5t-38.5 38.5t-26 49.5t-9.5 56.5q0 49 24 90t65.5 65t89.5 24zM898 12v68l-115 -102l-64 57v-69l64 -57zM980 440q1 8 -5 14q-2 5 -6 8l-453 322q-2 2 -5 2.5t-6 0.5l-257 6
q-6 0 -11 -3.5t-7 -9.5q-5 -13 7 -21l117 -84l-56 -40q-3 -1 -6 -3l-247 -178q-8 -6 -8 -15v-1h-1v-314l8 -15l453 -321h1q2 -2 3 -2q4 -2 8 -2q6 0 11 4l111 79q-11 15 -19 31l-84 -59v268l416 295v-236q10 -8 19 -17q10 -10 18 -21v310l-1 1v1v0zM307 754l192 -4l400 -283
l-192 4zM490 -161l-417 295v268l417 -295v-268zM509 140l203 146l-422 299l-202 -146zM431 86v-145l-318 225v146z" />
    <glyph glyph-name="uniE623" unicode="&#xe623;" 
d="M232 580h560v-56h-560v56zM232 412v56h560v-56h-560zM680 244l-168 -224l-168 224h336zM848 748h-672q-46 0 -79 -33t-33 -79v-672q0 -46 33 -79t79 -33h672q46 0 79 33t33 79v672q0 46 -33 79t-79 33zM848 12q0 -20 -14 -34t-34 -14h-576q-13 0 -24 6.5t-17.5 17.5
t-6.5 24v576q0 20 14 34t34 14h576q20 0 34 -14t14 -34v-576zM232 300v56h560v-56h-560z" />
    <glyph glyph-name="uniE62B" unicode="&#xe62b;" 
d="M862 -77h-215v161h135q33 0 56.5 24t23.5 57.5t-23.5 57t-56.5 23.5q-19 0 -38 -11q10 35 10 65q0 89 -63 152.5t-152 63.5q-50 0 -94 -22t-74 -59.5t-41 -85.5q-5 1 -8.5 2t-8 1.5t-8.5 1t-9 0.5q-55 0 -94.5 -39.5t-39.5 -95.5q0 -36 18 -67t49 -49t67 -18h81v-162
h-108l-47 9q-140 36 -194 150q-28 60 -28 137q0 103 63 182t160 104q51 79 134.5 125.5t181.5 46.5q137 0 241 -87t129 -219q53 -33 84 -87.5t31 -118.5q0 -53 -16.5 -97.5t-40.5 -70t-47.5 -43.5t-40.5 -25zM512 353l188 -215h-107v-215h-162v215h-107z" />
    <glyph glyph-name="uniE637" unicode="&#xe637;" 
d="M512 -102l-63 61q-60 53 -94.5 83.5t-81.5 74.5t-73 73t-55.5 67t-44.5 68.5t-25 66t-10 70.5q0 101 71 170.5t175 69.5q57 0 110.5 -24.5t90.5 -67.5q37 43 90.5 67.5t110.5 24.5q104 0 175 -69.5t71 -170.5q0 -35 -10 -70.5t-25 -66t-44.5 -68.5t-55.5 -67t-73 -73
t-81.5 -74.5t-95.5 -83.5z" />
    <glyph glyph-name="uniE63C" unicode="&#xe63c;" 
d="M511.5 747q-90.5 0 -173.5 -35.5t-142.5 -95.5t-95 -142.5t-35.5 -173.5t35.5 -173.5t95 -142.5t142.5 -95.5t173.5 -35.5t173.5 35.5t142.5 95.5t95 142.5t35.5 173.5t-35.5 173.5t-95 142.5t-142.5 95.5t-173.5 35.5zM119 300q0 107 52.5 197.5t143 143t197.5 52.5
q139 0 248 -89q3 -3 7 -6t7 -6l8 -8q3 -3 7 -6l-568 -542q-1 2 -3 3q-47 53 -73 120t-26 141zM512 -92q-141 0 -249 89l563 538q78 -104 78 -235q0 -32 -5 -63.5t-15 -60.5t-24 -56.5t-31.5 -51.5t-39 -45.5t-46 -39t-51.5 -32t-56 -24t-60.5 -14.5t-63.5 -5z" />
    <glyph glyph-name="uniE647" unicode="&#xe647;" 
d="M322 749l-80 -79q-2 -2 -3 -5t-1 -6t1 -5.5t3 -4.5l349 -349l-349 -349q-4 -4 -4 -10q1 -7 4 -11l80 -79q3 -3 6.5 -4t7.5 0t7 4l439 439q4 4 4 10q0 3 -1 5.5t-3 4.5l-439 439q-11 11 -21 0z" />
    <glyph glyph-name="uniE64C" unicode="&#xe64c;" 
d="M1024 419h-409v386h-201v-386h-409v-242h409v-387h201v387h409v242zM1024 419z" />
    <glyph glyph-name="uniE651" unicode="&#xe651;" 
d="M404 700q111 16 215 0q14 -3 36.5 -7.5t38 -7.5t35.5 -7.5t37 -9.5q55 -15 74 -71q6 -17 12 -34.5t12 -34.5l14 -36l12 -34q7 -18 14 -35q3 -8 10.5 -16t12.5 -7q33 4 52 -12t31 -47q4 -13 0 -32q-7 -2 -15 -4t-14 -4t-14.5 -4t-13.5 -4q7 -58 7 -61q2 -180 0 -283
q-1 -12 -6.5 -28t-10.5 -19q-3 -5 -40.5 -7.5t-76 -1t-43.5 5.5q-16 11 -20.5 29t-2 34t-3.5 34h-484q-3 -12 -8 -38t-9 -41.5t-9 -17.5q-19 -7 -89 -7t-75 7q-15 11 -18 54q-2 24 -1 119q0 29 3 223q-15 4 -54 14q-2 16 0 25q12 36 31 53t55 13q4 -1 11 6.5t10 14.5
q39 103 49 140q14 56 53 85t99 41q5 1 83 13zM184 385q333 -69 654 0q-48 146 -51 158q-6 22 -17.5 37t-28 22.5t-37.5 8.5q-182 8 -311 9q-35 0 -102 -16q-12 -2 -23 -9.5t-14 -15.5q-12 -30 -70 -194zM226 144q34 0 54 4q6 2 12.5 5.5t12 8.5t6.5 10q2 4 -1 10.5t-8 12.5
t-9 8q-21 10 -41.5 18.5t-42 16.5t-41.5 15q-43 14 -52 -24q-15 -66 32 -76q8 -2 16 -3l16 -2q8 -1 15 -1.5t16 -1t15 -1.5zM802 144q7 1 23.5 2.5t30 3t25.5 4.5q9 2 15 6.5t9 8.5t4.5 12t1.5 12t-0.5 14.5t-0.5 13.5q-1 18 -11 28t-25 5q-85 -26 -150 -58
q-17 -8 -12.5 -25t23.5 -21q4 -1 67 -6z" />
    <glyph glyph-name="uniE654" unicode="&#xe654;" 
d="M893 31h-762q-28 0 -47.5 19.5t-19.5 47.5v404q0 28 19.5 47.5t47.5 19.5h762q28 0 47.5 -19.5t19.5 -47.5v-404q0 -13 -5 -25.5t-14 -21.5t-21.5 -14.5t-26.5 -5.5zM333 479q-25 0 -45.5 -12t-32.5 -32.5t-12 -44.5q0 -37 26.5 -63.5t63.5 -26.5t63 26.5t26 63.5t-26 63
t-63 26zM479 227q-4 3 -9 5.5t-11 5t-12.5 4.5t-13 3.5t-12.5 3.5t-11.5 3t-9 1.5t-6.5 1.5h-2q-42 -50 -60 -50q-8 0 -22.5 12.5t-25.5 25.5l-11 12q-65 -11 -87 -28q-7 -5 -12.5 -17.5t-9 -27.5t-6 -29t-3.5 -23l-2 -9h359l-8 54q-10 40 -25 52zM871 434h-269v-44h269v44z
M871 345h-269v-45h269v45zM871 255h-269v-45h269v45zM871 166h-269v-45h269v45zM871 166z" />
    <glyph glyph-name="uniE656" unicode="&#xe656;" 
d="M509 332h3l-1 4zM169 439h60l27 124h159h189h159l27 -124h60l-34 159l-5 24h-24h-183h-189h-183h-24l-5 -24zM853 410l34 -78v-234h-26v-118h-147v118h-406v-118h-146v118h-28v234l32 78l3 14h60h258h47h256h60zM236 323q-23 0 -39 -16t-16 -39q0 -11 4.5 -21t11.5 -17.5
t17.5 -12t21.5 -4.5t21.5 4.5t18 12t11.5 17.5t4 21q0 23 -16 39t-39 16zM774 323q-23 0 -39.5 -16t-16.5 -39t16.5 -39t39.5 -16t39 16t16 39t-16 39t-39 16zM358 293v-122h301v122h-301z" />
    <glyph glyph-name="uniE659" unicode="&#xe659;" 
d="M325.5 279.5q-20.5 8.5 -41 0.5t-29.5 -29l-121 -290l-34 57q-12 19 -33.5 24.5t-40.5 -6t-24.5 -33t6.5 -40.5l88 -149q17 -28 50 -26t46 33l162 389q9 20 0.5 40.5t-29 29zM1014 481l-323 321q-10 10 -23 10h-379q-59 0 -100.5 -42t-41.5 -100v-434q0 -14 9.5 -23.5
t23 -9.5t23.5 9.5t10 23.5v434q0 31 22.5 53.5t53.5 22.5h337v-117h-144q-5 0 -9 -2.5t-6 -6.5t-2 -8q0 -7 5 -12t12 -5h144v-32q0 -6 2 -20h-146q-4 0 -7 -1.5t-5.5 -3.5t-3.5 -5t-1 -7q0 -7 5 -12t12 -5h155q16 -39 51.5 -63.5t79.5 -24.5h190v-490q0 -31 -22.5 -53.5
t-53.5 -22.5h-592q-13 0 -23 -10t-10 -23.5t10 -23t23 -9.5h591q59 0 101 42t42 100v526q0 7 -2.5 13t-7.5 11zM432 625l-6 2q-3 1 -6 0t-6 -2.5t-5 -4.5l-60 -90l-60 90q-2 4 -6 6t-8.5 1.5t-7.5 -2.5q-13 -9 -5 -23l59 -88h-38q-4 0 -7.5 -2t-6 -6t-2.5 -8q0 -7 5 -11.5
t11 -4.5h50v-22h-50q-4 0 -7.5 -2t-6 -6t-2.5 -8q0 -7 5 -11.5t11 -4.5h50v-34q0 -7 5 -11.5t11.5 -4.5t11 4.5t4.5 11.5v34h50q4 0 8 2t6 6t2 8q0 7 -4.5 11.5t-11.5 4.5h-50v22h50q7 0 11.5 4.5t4.5 11t-4.5 11.5t-11.5 5h-38l59 88q9 14 -4 23zM482 115h388q8 0 12.5 5
t4.5 12.5t-4.5 12.5t-12.5 5h-388q-4 0 -7 -1.5t-5.5 -4t-3.5 -5.5t-1 -6q0 -15 13 -17q2 0 4 -1zM482 201h388q3 0 5 0.5t4 1.5t3.5 3t2.5 3.5t1.5 4t0.5 4.5q0 7 -4.5 12t-12.5 5h-388q-5 0 -9 -2t-6 -6t-2 -9q3 -14 17 -17z" />
    <glyph glyph-name="uniE661" unicode="&#xe661;" 
d="M930 619h-23v-775q0 -19 -13.5 -32t-32.5 -13q-5 0 -11 1q-3 -1 -6 -1h-5h-661l-11 1q-6 -1 -11 -1q-19 0 -32.5 13t-13.5 32v775h-23q-18 0 -31.5 13.5t-13.5 32.5t13.5 32t31.5 13h296v46q0 9 4 17.5t10 14.5t14.5 9.5t17.5 3.5h159q6 0 12 -1.5t11 -4.5t9.5 -7t7 -9
t4.5 -11t2 -12v-46h296q7 0 14 -2t12.5 -6.5t10 -10t6.5 -12.5t2 -14q0 -19 -13.5 -32.5t-31.5 -13.5zM201 619v-729h615v729h-615zM679 26h-23q-9 0 -15.5 7t-6.5 16v411q0 9 6.5 15.5t15.5 6.5h23q10 0 16.5 -6.5t6.5 -15.5v-411q0 -9 -6.5 -16t-16.5 -7zM520 26h-23
q-9 0 -16 7t-7 16v411q0 9 7 15.5t16 6.5h23q9 0 16 -6.5t7 -15.5v-411q0 -2 -0.5 -4.5t-1.5 -4.5t-2 -3.5t-3 -3t-3.5 -3t-3.5 -2.5t-4.5 -1.5t-4.5 -0.5zM361 26h-23q-10 0 -16.5 7t-6.5 16v411q0 9 6.5 15.5t16.5 6.5h23q9 0 15.5 -6.5t6.5 -15.5v-411q0 -9 -6.5 -16
t-15.5 -7z" />
    <glyph glyph-name="uniE677" unicode="&#xe677;" 
d="M175 195q9 0 20 2q-6 18 -10.5 35.5t-7 36.5t-2.5 38q0 15 1.5 29t4 28t6 27t8.5 27h-1q35 100 122 163t196 63t196 -63t122 -163h-1q10 -28 15 -55.5t5 -55.5q0 -53 -20 -110q5 -1 10 -1.5t10 -0.5q47 0 79.5 33t32.5 79q0 35 -19.5 63.5t-50.5 40.5q-23 83 -77.5 149
t-133.5 103t-168 37q-134 0 -239 -81t-140 -208q-15 -6 -28 -16.5t-22.5 -23.5t-14.5 -29.5t-5 -34.5q0 -30 15 -56t40.5 -41t56.5 -15zM793 139q0 2 2 23v145h-2q0 117 -82.5 199t-198.5 82q-57 0 -109 -22t-89.5 -60t-60 -90t-22.5 -109v-145q2 -21 2 -23q0 -85 -47 -155
t-122 -103q53 -23 111 -23q99 0 178 66q65 -66 159 -66q95 0 160 66q79 -66 179 -66q29 0 57 6t54 17q-76 33 -122.5 103t-46.5 155zM691 81q-29 -30 -69 -44q-3 19 -18.5 32.5t-35.5 13.5q-23 0 -39.5 -16.5t-16.5 -40t16.5 -40t39.5 -16.5q31 0 65 11q-55 -67 -121 -67
q-119 1 -189 192q-28 76 -38 147q9 3 23 9.5t51 25.5t66.5 38t56.5 45.5t34 49.5l-16 -76q-22 -81 -48 -91q6 2 17 6t38.5 16.5t50 25.5t42.5 31.5t24 35.5q1 -5 2 -13t8.5 -29t18.5 -36.5t33.5 -27t51.5 -9.5q-12 -88 -47 -173zM400 251q-16 0 -28.5 -7.5t-20 -20.5
t-7.5 -28h112q0 8 -2 15t-5.5 13.5t-9 11.5t-11.5 8.5t-13.5 5.5t-14.5 2zM624 251q-15 0 -28 -7.5t-20.5 -20.5t-7.5 -28h113q0 11 -4.5 21.5t-12 18t-18 12t-22.5 4.5z" />
    <glyph glyph-name="uniE690" unicode="&#xe690;" 
d="M985 302q0 -197 -139 -335.5t-335 -138.5q-177 0 -311 117q-129 112 -156 279q-6 39 -6 78q0 96 37.5 183.5t100.5 151t151 101t184.5 37.5t184 -37.5t151 -101t101 -151t37.5 -183.5zM572 30q-39 23 -58.5 58t-19.5 81q0 10 1.5 19.5t4.5 18t7 17.5t8 17t9 16.5t9.5 16
t8.5 16.5l9 17q4 10 17 32q8 14 12 18q10 10 14.5 25t-0.5 27q-4 12 -10 40q0 5 -3.5 27t-7.5 34q-13 47 -54.5 70t-86.5 17t-73 -35q-31 -33 -39 -93q-6 -46 -9 -55q-6 -17 -3 -32t16 -27q3 -2 5.5 -5.5t3.5 -7.5q8 -28 29 -45q11 -9 14.5 -21t1.5 -27q-3 -33 -45 -50
q-12 -5 -35.5 -12.5t-33.5 -11.5q-36 -16 -39 -40q-2 -15 -2 -78q0 -10 6 -15t16 -7q22 -4 51 -8q137 -19 246 -9q5 1 11.5 1.5t15 2t13.5 2.5zM798 167q0 36 -17.5 66.5t-48 48t-66.5 17.5q-54 0 -92.5 -38.5t-38.5 -93.5q0 -54 38.5 -92.5t92.5 -38.5q22 0 42 6.5
t36.5 18.5t28.5 28.5t18.5 36.5t6.5 41zM720 146h11q13 0 20.5 6t7.5 16q0 6 -3.5 11.5t-9.5 8.5t-14 3h-6h-6q-5 -2 -9 0t-7 0t-5.5 0t-4 1t-2.5 1.5t-1.5 2t-0.5 3.5t-0.5 5.5t-0.5 7.5v9v6q0 3 -0.5 6t-1.5 6q-4 20 -23 19q-18 -2 -20 -23q-1 -15 0 -28q1 -10 -3 -13.5
t-13 -2.5h-19q-28 0 -29 -22q0 -6 1.5 -10t5 -7t9 -4.5t12.5 -1.5q27 -2 31.5 -6.5t4.5 -30.5q0 -15 5.5 -23t16 -7.5t17 8t6.5 22.5v3v3q1 26 3 28t28 3z" />
    <glyph glyph-name="uniE697" unicode="&#xe697;" 
d="M899 167l120 348q7 19 -3 33q-13 18 -43 18h-681l-18 83q-9 38 -48 38h-192q-30 0 -30 -27v-48q0 -12 7.5 -17t23.5 -5h162l123 -506q-30 -31 -30 -77t33 -80.5t80 -34.5q40 0 72.5 29t38.5 57h241q7 -30 36.5 -58.5t75.5 -28.5q18 0 35 5.5t31 16t24.5 24.5t16 31
t5.5 35q0 47 -29 79.5t-83 32.5q-24 0 -48 -11t-37 -29h-295q-28 41 -81 43l-4 21h450q23 0 32 7t15 21zM359 4q0 17 12.5 29t30 12t30.5 -12t13 -29t-13 -29t-30.5 -12t-30 12t-12.5 29zM867 -37q-17 0 -29.5 12t-12.5 29t12.5 29t29.5 12q12 0 22 -5.5t15.5 -15t5.5 -20.5
t-5.5 -20.5t-15.5 -15t-22 -5.5z" />
    <glyph glyph-name="uniE6C0" unicode="&#xe6c0;" 
d="M882 703q28 0 47 -19.5t19 -47.5v-51q0 -28 -19 -47.5t-47 -19.5h-740q-28 0 -47 19.5t-19 47.5v51q0 28 19 47q6 7 13.5 11t16 6.5t17.5 2.5h740zM882 391q28 0 47 -19.5t19 -47.5v-51q0 -28 -19 -47.5t-47 -19.5h-740q-28 0 -47 20q-10 10 -14.5 21.5t-4.5 25.5v51
q0 14 4.5 26t14.5 21q19 20 47 20h740zM882 79q28 0 47 -19.5t19 -47.5v-51q0 -28 -19 -47t-47 -19h-740q-28 0 -47 19t-19 47v51q0 28 19 47.5t47 19.5h740zM882 79z" />
    <glyph glyph-name="uniE6D5" unicode="&#xe6d5;" horiz-adv-x="1058" 
d="M967 450q37 -52 56 -111t26.5 -115t7.5 -105q-1 -25 -1 -45v-35q0 -6 -1 -14q0 -4 -1 -8.5t-2 -8.5q-3 -9 -6.5 -15t-9.5 -6h-41q0 34 -10.5 58t-27.5 39t-41 22q-12 3 -24 5t-25 2q-26 0 -48 -10t-38.5 -27t-26 -39.5t-9.5 -47.5h-18q-18 0 -30.5 13t-12.5 31v1v479
q0 6 1.5 12.5t5.5 13.5t8.5 11t9.5 4q17 2 34 1.5t35 -3.5t35.5 -7.5t35 -11t34 -15t32.5 -18.5q31 -21 52 -50zM951 235q12 0 20.5 0.5t8.5 12.5q0 2 -0.5 3t-0.5 3q-10 49 -23 94.5t-44 77.5q-20 19 -43 27.5t-43.5 11t-34.5 1.5q-4 -1 -7 -1h-6h-2q-13 0 -22 -9.5
t-9 -20.5v-91q0 -20 0.5 -42t0.5 -47v-1q0 -5 7 -12q3 -2 5 -3.5t4.5 -2.5t4.5 -1h184zM620 676l2 -649q0 -8 -3 -15t-9 -13q-11 -11 -27 -11h-272q0 59 -30 93t-94 34q-60 0 -92.5 -31.5t-32.5 -95.5h-23q-17 0 -28 10t-11 29v518q0 24 9 47t25.5 42t38.5 30q11 6 23 9
t25 3h499zM872 50q26 0 45 -19t19 -45q0 -27 -19 -45.5t-45 -18.5q-27 0 -45 19q-4 3 -7 7.5t-5 8.5t-3.5 9t-2.5 10t-1 10q0 26 18.5 45t45.5 19zM186 51q27 0 45.5 -19t18.5 -46q0 -26 -18.5 -44.5t-45.5 -18.5t-45 18.5t-18 44.5q0 27 18 46t45 19zM186 51z" />
    <glyph glyph-name="uniE6DA" unicode="&#xe6da;" 
d="M609 611l-80 -116q-14 -26 -37 -57q-15 -20 -16 -23l-3 -10h-21l-5 6q0 1 -2 3t-2.5 3t-2 3t-3 3.5t-2.5 3.5q-10 13 -16.5 21.5t-19.5 26.5t-24.5 35.5t-28.5 44t-34 56.5h-48l164 -221h-150v-26h157l4 -122h-158v-27h157v-194h46v194h152v27h-152v121l149 1v26h-146
l165 221h-43zM105 -148q-20 0 -36.5 9t-26 25t-9.5 34v796q0 28 21 48t51 20h690q20 0 36.5 -9t26 -25t9.5 -34v-442q4 -1 8 -1.5t8 -1.5l8 -2l8 -2v449q0 40 -30.5 68t-73.5 28h-690q-43 0 -73.5 -28t-30.5 -68v-796q0 -40 30.5 -68t73.5 -28h497q-11 12 -23 28h-474z
M813 215q-87 0 -148 -61.5t-61 -148.5t61 -148.5t148 -61.5t148.5 61.5t61.5 148.5q0 25 -5.5 48.5t-16 44t-24.5 39t-32.5 32.5t-39 24.5t-44 16t-48.5 5.5zM904 -33h-85h-23h-20v140h43v-93h85v-47zM904 -33z" />
    <glyph glyph-name="uniE6EC" unicode="&#xe6ec;" 
d="M1005 433q-6 -4 -16.5 -5.5t-20.5 -1.5t-19 -2.5t-11 -7.5q-3 -6 -19 -14.5t-27 -12.5q35 -18 57.5 -52t25.5 -75v-197h-18v-108q0 -5 -2.5 -9t-6.5 -6.5t-9 -2.5h-144q-8 0 -13.5 5t-5.5 13v36h-524v-36q0 -8 -5 -13t-13 -5h-144q-8 0 -13 5t-5 13v108h-19v197h1
q2 38 21.5 70t51.5 51l-3 3l-4 4q-1 1 -3 2.5t-3 3.5t-2.5 3.5t-2.5 3t-1 3.5q-3 6 -22 8t-40.5 3t-28.5 7q-3 2 -5 5.5t-2 7t0.5 7t1.5 6.5t2.5 5t1.5 3l1 2q9 18 24 25t33 0.5t34 -25.5q6 -8 12 -15.5t7.5 -9t3.5 -5.5t3 -7t3 -11q20 42 45.5 88t58 92.5t47.5 46.5
q49 1 233 3q230 3 237 -3q29 -23 68 -101.5t57 -126.5l1 -1h1q0 3 1 7q5 17 6.5 22t3.5 7.5t3.5 2t7 4t13.5 15.5q14 18 31 24.5t31.5 -0.5t22.5 -24l6 -15q1 -13 -6 -20zM831 65h18v-18h36v18h18v36h-18v17h-36v-17h-18v-36zM252 65q0 -23 16 -38.5t39 -15.5h415
q23 0 38.5 15.5t15.5 38.5v53q0 21 -14 36h-496q-14 -15 -14 -36v-53zM234 172h73h415h73q-2 30 -0.5 36.5t-90.5 71.5q-366 1 -379 0q-3 0 -9.5 -4t-14.5 -10.5t-17.5 -14t-18 -15t-15.5 -14t-12 -10.5l-4 -4v-36zM126 65h18v-18h36v18h18v36h-18v17h-36v-17h-18v-36z
M144 352q-23 0 -38.5 -18.5t-15.5 -44.5t15.5 -44.5t38.5 -18.5q15 0 27.5 8.5t19.5 23t7 31.5q0 10 -2.5 19.5t-7.5 17.5t-12 14t-15 9t-17 3zM828 406q-10 60 -33 125q-6 18 -13.5 32t-14 23t-13.5 16t-12.5 10.5t-10 5.5t-7.5 2l-2 1h-415q-21 0 -120 -217q6 1 10.5 1.5
t9.5 0.5h615h4l3 -1zM884.5 352q-22.5 0 -38 -18.5t-15.5 -44.5t15.5 -44.5t38 -18.5t38.5 18.5t16 44.5t-16 44.5t-38.5 18.5z" />
    <glyph glyph-name="uF000A" unicode="&#xf000a;" 
d="M428 664q3 -13 5 -26.5t2 -26.5q0 -42 -16 -79t-43.5 -64.5t-64 -43t-77.5 -15.5q-22 0 -41.5 4t-37.5 12q-12 5 -23.5 11.5t-21.5 14.5t-19 17q-28 27 -44 64t-16 79v4q0 2 1 5q-14 -17 -22 -37q-2 -5 -3.5 -9.5t-2.5 -9t-2 -8.5v-10q-1 -4 -1 -8v-502q0 -18 10.5 -27.5
t27.5 -9.5h22q0 62 31.5 92t89.5 30q62 0 91 -32.5t29 -89.5h263q4 0 7.5 0.5t7 2t6.5 3.5l6 4q11 11 11 27l-2 628h-173zM181 60q-26 0 -43.5 -18.5t-17.5 -44.5q0 -25 17.5 -43.5t43.5 -18.5t44 18.5t18 43.5q0 26 -18 44.5t-44 18.5zM844 59q-26 0 -43.5 -18.5
t-17.5 -43.5q0 -26 18 -44q9 -10 19.5 -14.5t23.5 -4.5q26 0 44 18.5t18 44.5q0 25 -18 43.5t-44 18.5zM1016.5 226.5q-7.5 54.5 -25.5 111.5t-55 107q-20 28 -50 48t-63.5 33t-68.5 18t-67 2q-10 -1 -17 -15q-4 -7 -6 -13t-2 -11v-464v-1q0 -4 1 -8t2.5 -8t4 -7.5t5.5 -6.5
q12 -12 30 -12h17q0 24 9 46q5 10 11 19.5t14 18.5q16 16 37.5 25.5t46.5 9.5t47.5 -6.5t39.5 -21.5q8 -7 15 -16.5t12 -20.5q10 -23 10 -56h40q2 0 4.5 1.5t4 4.5t3 6.5t3 7.5t2 8t1.5 8q1 8 1 14q0 30 0.5 77t-7 101.5zM941 238.5q-9 -0.5 -20 -0.5h-178q-6 0 -13 7
q-2 2 -3.5 4t-2.5 4t-1 3v1q-1 48 -1 86v88q0 10 8.5 19.5t21.5 9.5q1 0 14.5 0.5t33.5 -1.5q6 -1 13 -2.5t14 -3.5t14.5 -4.5t14.5 -6.5t14 -9t13 -11q30 -31 42 -75q5 -14 9 -29t7.5 -30.5t7.5 -31.5v-3l1 -3q0 -11 -9 -11.5zM378 675q-13 29 -34.5 50.5t-50.5 34
t-61 12.5q-33 0 -61.5 -12.5t-50 -34t-34.5 -50.5q-12 -29 -13 -61q0 -33 13 -62t34.5 -50.5t50 -33.5t61.5 -12q11 0 21.5 1.5t20.5 4t19 6.5q29 12 50.5 33.5t34 50.5t12.5 62q0 11 -1.5 21t-4 20t-6.5 20zM329 581q-3 -3 -6 -5t-6.5 -3t-7.5 -1h-87q-12 0 -20 8.5
t-8 20.5v115q0 12 8 20.5t20 8.5t20.5 -8.5t8.5 -20.5v-86h58q5 0 10.5 -2t9.5 -7q8 -8 8 -20t-8 -20z" />
    <glyph glyph-name="uF0024" unicode="&#xf0024;" 
d="M274 434q-27 0 -35 15t11 38q19 25 45 60t53.5 72t53.5 72.5t47 61.5q18 23 35 24t36 -21q20 -24 45 -57t51.5 -69.5t52.5 -71.5t47 -60q22 -28 17 -46.5t-34 -17.5q-17 0 -44.5 -1t-46.5 -1q-20 -1 -24.5 -12.5t-4.5 -32.5v-50q0 -28 0.5 -56.5t0.5 -56.5v-51
q0 -10 -1.5 -21.5t-7.5 -20.5t-16.5 -15t-29.5 -6q-21 0 -39 -0.5t-43 -0.5q-33 0 -45 15.5t-12 50.5v40q0 24 -0.5 50.5t-0.5 52.5v49q0 30 -6 48t-28 17q-15 0 -37 1t-40 1zM962 -89q6 -25 -3 -47.5t-27.5 -39.5t-45 -26.5t-57.5 -9.5h-694q-37 0 -65 13.5t-45 33
t-22.5 42.5t1.5 41q6 14 12 30q6 13 13 30t15 34l39 94h117l-44 -129h659l-44 129h112q21 -52 39 -94q7 -18 14 -35.5t12.5 -31.5t9.5 -23.5t4 -10.5z" />
    <glyph glyph-name="uF00A5" unicode="&#xf00a5;" 
d="M514 -33l-24 24l40 39h-36q-8 -33 -26 -63h46zM888 284q0 6 -2.5 12t-7 10t-10 6.5t-12.5 2.5h-484q14 -8 27.5 -17.5t25.5 -21t22 -24.5h409q24 0 30 22q2 5 2 10zM831 125h-331q3 -17 3 -31q0 -8 -0.5 -16t-2.5 -16h61l5 4l4 -4h198zM856 157q4 0 8 1l23 23q1 2 1 4v4
q0 13 -9.5 22t-22.5 9h-388q18 -29 26 -63h362zM350 442h506q13 0 22.5 9t9.5 22.5t-9.5 22.5t-22.5 9h-506q-14 0 -23 -9t-9 -22q0 -9 4 -16.5t11.5 -11.5t16.5 -4zM546 -65h-99q-32 -39 -75 -63h237zM350 347h506q13 0 22.5 9t9.5 23q0 6 -2.5 12t-7 10t-10 6.5t-12.5 2.5
h-506q-14 0 -23 -9t-9 -22.5t9 -22.5t23 -9zM476 94q0 60 -29.5 111t-80.5 80.5t-111 29.5q-92 0 -157 -65t-65 -156.5t65 -156.5t156.5 -65t156.5 65t65 157zM330.5 7q-7.5 -15 -20.5 -25t-30 -16h-2h-3v-35h-31v30h-1q-7 0 -13 0.5t-12 2.5q-3 0 -6 1l-8 2l-6 2
q-4 1 -7.5 2.5t-6.5 3.5q-6 3 -8.5 6t-3.5 7.5t-1 13.5v11q0 4 1 6.5t3 3.5l3 1q2 0 3.5 -0.5t4.5 -2.5q1 -1 2.5 -2t3 -1.5t3.5 -1.5l4 -2q4 -2 8.5 -4t10.5 -4q11 -3 25 -3q10 0 17.5 2.5t12.5 6.5t8 10t3 14q0 9 -5 15t-12 11q-4 2 -8.5 4.5t-9.5 4.5t-10 4.5t-10 4.5
q-10 5 -20 11q-4 3 -8.5 6.5t-8.5 7.5q-8 9 -12 20q-3 6 -4 13t-1 15q0 3 1 7v6q1 4 1.5 7t1.5 6t3 6q7 14 18 23q6 5 13 8.5t14.5 5.5t16.5 3v33h31v-33h2h2q9 -1 17 -3.5t14 -5.5q3 -1 5 -2.5t3 -2.5q2 -2 3 -3.5t1.5 -3.5t0.5 -6v-8v-10q0 -2 -0.5 -3.5t-0.5 -3.5l-2 -3
q-2 -2 -4 -2t-7 3t-11.5 6t-15.5 6l-20 3q-9 0 -15.5 -2t-10.5 -6t-6 -9t-2 -11q0 -8 4.5 -14.5t12.5 -11t17.5 -9t20 -9t20.5 -10.5t17.5 -14.5t12.5 -20t5 -26.5q0 -21 -7.5 -36zM979 132l-54 54l-226 -227l-74 75l-54 -54l125 -126l3 2l2 -2z" />
    <glyph glyph-name="uF014F" unicode="&#xf014f;" horiz-adv-x="1028" 
d="M1018 700q4 -9 7 -21.5t3 -26t-5.5 -26.5t-16.5 -25q-12 -13 -22 -22t-17 -16l-15 -15l-192 192q13 11 29.5 27t28.5 25q14 11 29.5 15.5t30 4t28.5 -4.5t24 -9q22 -11 48 -39t40 -59zM221 200q6 7 28.5 30t56.5 56l75 75l83 83l220 220l191 -192l-220 -220l-82 -83
q-41 -40 -73.5 -73.5t-54 -55t-25.5 -24.5q-11 -9 -24 -19t-28 -17q-14 -7 -41.5 -17t-58 -20t-57.5 -17t-40 -9q-28 -3 -37 8t-5 38q2 14 9.5 41.5t16.5 56.5t17 53.5t13 33.5q6 15 14 26.5t22 25.5z" />
  </font>
</defs>
</svg>
